<svg height="511pt" viewBox="1 -17 511.99997 511" width="511pt" xmlns="http://www.w3.org/2000/svg"><path d="m307.199219 410.171875-6.585938 19.765625c-1.164062 3.484375-4.425781 5.835938-8.097656 5.835938h-73.03125c-3.671875 0-6.9375-2.351563-8.097656-5.835938l-6.585938-19.765625h-196.269531v25.601563c0 18.851562 15.285156 34.132812 34.136719 34.132812h426.664062c18.851563 0 34.136719-15.28125 34.136719-34.132812v-25.601563zm0 0" fill="#bddbff"/><path d="m256 9.105469c-42.414062.121093-76.699219 34.605469-76.578125 77.019531.101563 35.675781 24.753906 66.578125 59.511719 74.609375v10.878906h-.375l-25.226563 25.226563 25.601563 25.597656-25.414063 25.414062 25.414063 25.410157v.378906l-25.601563 25.597656 42.667969 42.667969 25.601562-17.066406v-166.597656c39.949219-14.246094 60.785157-58.183594 46.539063-98.136719-10.882813-30.511719-39.746094-50.914063-72.140625-51zm0 102.402343c-14.136719 0-25.601562-11.464843-25.601562-25.601562s11.464843-25.601562 25.601562-25.601562 25.601562 11.464843 25.601562 25.601562-11.464843 25.601562-25.601562 25.601562zm0 0" fill="#bddbff"/><g fill="#3d9ae2"><path d="m503.46875 401.640625h-8.535156v-247.46875c-.027344-23.550781-19.113282-42.636719-42.667969-42.664063h-102.398437v17.066407h102.398437c14.140625 0 25.601563 11.460937 25.601563 25.597656v247.46875h-34.132813v-196.269531c-.03125-23.550782-19.117187-42.636719-42.667969-42.664063h-85.332031v17.066407h85.332031c14.136719 0 25.601563 11.460937 25.601563 25.597656v25.601562h-119.46875v17.066406h119.46875v153.601563h-119.46875c-3.671875-.003906-6.9375 2.347656-8.097657 5.835937l-6.585937 19.761719h-73.03125l-6.585937-19.761719c-1.160157-3.488281-4.425782-5.839843-8.097657-5.835937h-119.46875v-153.601563h102.402344v-17.066406h-102.402344v-25.601562c0-14.136719 11.460938-25.597656 25.601563-25.597656h85.332031v-17.066407h-85.332031c-23.554688.027344-42.636719 19.113281-42.667969 42.664063v196.269531h-34.132813v-247.46875c0-14.136719 11.460938-25.597656 25.601563-25.597656h102.398437v-17.066407h-102.398437c-23.554687.027344-42.640625 19.113282-42.667969 42.664063v247.46875h-8.535156c-4.710938 0-8.53125 3.820313-8.53125 8.53125v25.601563c.0273438 23.550781 19.113281 42.636718 42.667969 42.664062h426.664062c23.554688-.027344 42.640625-19.113281 42.667969-42.664062v-25.601563c0-4.710937-3.820312-8.53125-8.53125-8.53125zm-8.535156 34.132813c0 14.136718-11.460938 25.597656-25.601563 25.597656h-426.664062c-14.140625 0-25.601563-11.460938-25.601563-25.597656v-17.066407h181.582032l4.640624 13.933594c2.324219 6.96875 8.851563 11.667969 16.195313 11.664063h73.03125c7.351563.011718 13.886719-4.6875 16.210937-11.664063l4.625-13.933594h181.582032zm0 0"/><path d="m102.398438 196.839844h17.070312v17.066406h-17.070312zm0 0"/><path d="m136.53125 196.839844h17.070312v17.066406h-17.070312zm0 0"/><path d="m170.667969 196.839844h17.066406v17.066406h-17.066406zm0 0"/><path d="m230.398438 167.269531-23.039063 23.503907c-3.332031 3.332031-3.332031 8.734374 0 12.0625l19.542969 19.601562-19.414063 19.414062c-3.332031 3.332032-3.332031 8.734376 0 12.066407l19.566407 19.566406-19.753907 19.753906c-3.332031 3.335938-3.332031 8.734375 0 12.070313l42.664063 42.664062c2.878906 2.878906 7.386718 3.324219 10.769531 1.066406l25.601563-17.066406c2.382812-1.589844 3.808593-4.269531 3.796874-7.132812v-160.792969c43.183594-18.875 62.890626-69.183594 44.015626-112.367187-18.875-43.183594-69.183594-62.890626-112.367188-44.015626s-62.890625 69.183594-44.015625 112.367188c9.886719 22.617188 29.082031 39.847656 52.632813 47.238281zm25.601562-149.628906c37.679688-.023437 68.242188 30.503906 68.261719 68.183594.015625 28.9375-18.222657 54.738281-45.511719 64.371093-3.40625 1.207032-5.683594 4.433594-5.683594 8.046876v162.03125l-15.980468 10.648437-31.6875-31.683594 19.566406-19.566406c1.617187-1.742187 2.511718-4.03125 2.503906-6.40625-.003906-2.265625-.902344-4.433594-2.503906-6.035156l-19.378906-19.378907 19.378906-19.378906c1.605468-1.625 2.503906-3.816406 2.503906-6.101562-.003906-2.261719-.902344-4.433594-2.503906-6.03125l-19.53125-19.5 17.84375-17.835938c2.609375-1.542968 4.207031-4.355468 4.191406-7.390625v-10.871093c.003906-3.984376-2.753906-7.441407-6.640625-8.328126-36.734375-8.5-59.617187-45.167968-51.117187-81.898437 7.144531-30.875 34.597656-52.773437 66.289062-52.875zm0 0"/><path d="m256 120.039062c18.851562 0 34.132812-15.28125 34.132812-34.132812s-15.28125-34.132812-34.132812-34.132812-34.132812 15.28125-34.132812 34.132812 15.28125 34.132812 34.132812 34.132812zm0-51.199218c9.425781 0 17.066406 7.640625 17.066406 17.066406s-7.640625 17.066406-17.066406 17.066406-17.066406-7.640625-17.066406-17.066406 7.640625-17.066406 17.066406-17.066406zm0 0"/></g></svg>