<?xml version="1.0" encoding="iso-8859-1"?>
<!-- Generator: Adobe Illustrator 19.0.0, SVG Export Plug-In . SVG Version: 6.00 Build 0)  -->
<svg xmlns="http://www.w3.org/2000/svg" xmlns:xlink="http://www.w3.org/1999/xlink" version="1.1" id="Layer_1" x="0px" y="0px" viewBox="0 0 512 512" style="enable-background:new 0 0 512 512;" xml:space="preserve" width="512" height="512">
<g id="XMLID_646_">
	<g id="XMLID_647_">
		<g id="XMLID_648_">
			<g id="XMLID_649_">
				<g id="XMLID_650_">
					<path id="XMLID_2366_" style="fill:#4E7693;" d="M487.42,66.851H24.58c-9.433,0-17.08,7.647-17.08,17.08v344.138       c0,9.433,7.647,17.08,17.08,17.08h462.84c9.433,0,17.08-7.647,17.08-17.08V83.931C504.5,74.498,496.853,66.851,487.42,66.851z"/>
					<path id="XMLID_2363_" style="fill:#38627C;" d="M504.5,428.064V83.935c0-9.44-7.65-17.08-17.08-17.08h-27.5       c9.43,0,17.08,7.64,17.08,17.08v344.13c0,9.44-7.65,17.08-17.08,17.08h27.5C496.85,445.145,504.5,437.505,504.5,428.064z"/>
					<path id="XMLID_2360_" style="fill:#E3F4FF;" d="M504.5,140.814v-56.88c0-9.44-7.65-17.08-17.08-17.08H24.58       c-9.43,0-17.08,7.64-17.08,17.08v56.88H504.5z"/>
					<path id="XMLID_2357_" style="fill:#BDDFF4;" d="M504.5,140.814v-56.88c0-9.44-7.65-17.08-17.08-17.08h-27.5       c9.43,0,17.08,7.64,17.08,17.08v56.88H504.5z"/>
				</g>
			</g>
		</g>
		<g id="XMLID_651_">
			<path id="XMLID_2353_" style="fill:#1FE7A5;" d="M397.283,293.717H114.717C83.945,293.717,59,268.772,59,238v0     c0-30.772,24.945-55.717,55.717-55.717h282.566C428.055,182.283,453,207.228,453,238v0     C453,268.772,428.055,293.717,397.283,293.717z"/>
		</g>
	</g>
	<g id="XMLID_656_">
		<path id="XMLID_657_" d="M487.42,59.352H263.261c-4.142,0-7.5,3.357-7.5,7.5s3.358,7.5,7.5,7.5H487.42    c5.283,0,9.58,4.298,9.58,9.58v49.388H15V83.932c0-5.282,4.297-9.58,9.58-9.58h204.159c4.142,0,7.5-3.357,7.5-7.5    s-3.358-7.5-7.5-7.5H24.58C11.026,59.352,0,70.378,0,83.932v208.807c0,4.143,3.358,7.5,7.5,7.5s7.5-3.357,7.5-7.5V148.319h482    v279.749c0,5.282-4.297,9.58-9.58,9.58H24.58c-5.283,0-9.58-4.298-9.58-9.58V327.262c0-4.143-3.358-7.5-7.5-7.5    s-7.5,3.357-7.5,7.5v100.807c0,13.554,11.026,24.58,24.58,24.58h462.84c13.554,0,24.58-11.026,24.58-24.58V83.932    C512,70.378,500.974,59.352,487.42,59.352z"/>
		<path id="XMLID_658_" d="M96.012,103.764c0,4.143,3.358,7.5,7.5,7.5h0.094c4.142,0,7.453-3.357,7.453-7.5s-3.405-7.5-7.547-7.5    S96.012,99.621,96.012,103.764z"/>
		<path id="XMLID_659_" d="M71.535,103.913c0.043,4.115,3.392,7.422,7.498,7.422c0.026,0,0.053,0,0.08,0l0.094-0.001    c4.142-0.044,7.418-3.436,7.375-7.578c-0.043-4.142-3.512-7.477-7.625-7.421C74.814,96.379,71.492,99.771,71.535,103.913z"/>
		<path id="XMLID_660_" d="M54.479,96.406c-4.142,0.043-7.465,3.436-7.422,7.578c0.042,4.115,3.392,7.422,7.498,7.422    c0.026,0,0.053,0,0.079,0l0.094-0.001c4.142-0.043,7.418-3.436,7.375-7.577c-0.043-4.115-3.438-7.422-7.545-7.422    C54.532,96.406,54.505,96.406,54.479,96.406z"/>
		<path id="XMLID_661_" d="M149.253,96.406c-4.142,0-7.5,3.357-7.5,7.5s3.358,7.5,7.5,7.5h26.028c4.142,0,7.5-3.357,7.5-7.5    s-3.358-7.5-7.5-7.5H149.253z"/>
		<path id="XMLID_662_" d="M320.739,174.783H114.717C79.859,174.783,51.5,203.143,51.5,238s28.359,63.217,63.217,63.217h282.565    c34.858,0,63.217-28.359,63.217-63.217s-28.359-63.217-63.217-63.217h-42.021c-4.142,0-7.5,3.357-7.5,7.5s3.358,7.5,7.5,7.5    h42.021c26.587,0,48.217,21.63,48.217,48.217s-21.63,48.217-48.217,48.217H114.717C88.13,286.217,66.5,264.587,66.5,238    s21.63-48.217,48.217-48.217h206.021c4.142,0,7.5-3.357,7.5-7.5S324.881,174.783,320.739,174.783z"/>
		<path id="XMLID_663_" d="M377.778,263.969c10.875,0,19.722-8.848,19.722-19.723v-12.299c0-10.875-8.847-19.723-19.722-19.723H369    c-7.444,0-13.5,6.056-13.5,13.5v24.744c0,7.444,6.056,13.5,13.5,13.5H377.778z M370.5,227.225h7.278    c2.604,0,4.722,2.118,4.722,4.723v12.299c0,2.604-2.118,4.723-4.722,4.723H370.5V227.225z"/>
		<path id="XMLID_666_" d="M149,263.969c4.142,0,7.5-3.357,7.5-7.5v-36.744c0-4.143-3.358-7.5-7.5-7.5s-7.5,3.357-7.5,7.5v10.872    h-12v-10.872c0-4.143-3.358-7.5-7.5-7.5s-7.5,3.357-7.5,7.5v36.744c0,4.143,3.358,7.5,7.5,7.5s7.5-3.357,7.5-7.5v-10.872h12    v10.872C141.5,260.611,144.858,263.969,149,263.969z"/>
		<path id="XMLID_667_" d="M294.857,214.65c-2.803-3.05-7.547-3.252-10.597-0.449l-10.426,9.578v-4.054c0-4.143-3.358-7.5-7.5-7.5    s-7.5,3.357-7.5,7.5v36.744c0,4.143,3.358,7.5,7.5,7.5s7.5-3.357,7.5-7.5v-4.054l10.426,9.578c1.44,1.323,3.259,1.977,5.072,1.977    c2.026,0,4.046-0.816,5.525-2.426c2.802-3.051,2.601-7.795-0.45-10.598l-13.987-12.849l13.987-12.849    C297.458,222.445,297.659,217.701,294.857,214.65z"/>
		<path id="XMLID_668_" d="M201.5,263.969c4.142,0,7.5-3.357,7.5-7.5v-23.244c0-11.579-9.42-21-21-21s-21,9.421-21,21v23.244    c0,4.143,3.358,7.5,7.5,7.5s7.5-3.357,7.5-7.5v-3.5h12v3.5C194,260.611,197.358,263.969,201.5,263.969z M182,237.969v-4.744    c0-3.309,2.691-6,6-6s6,2.691,6,6v4.744H182z"/>
		<path id="XMLID_671_" d="M242.275,227.225c4.142,0,7.5-3.357,7.5-7.5s-3.358-7.5-7.5-7.5c-14.212,0-25.775,11.563-25.775,25.775    s11.563,25.775,25.775,25.775c4.142,0,7.5-3.357,7.5-7.5s-3.358-7.5-7.5-7.5c-5.941,0-10.775-4.834-10.775-10.775    S236.333,227.225,242.275,227.225z"/>
		<path id="XMLID_672_" d="M338.388,227.225c4.142,0,7.5-3.357,7.5-7.5s-3.358-7.5-7.5-7.5h-17c-7.444,0-13.5,6.056-13.5,13.5    v24.744c0,7.444,6.056,13.5,13.5,13.5h17c4.142,0,7.5-3.357,7.5-7.5s-3.358-7.5-7.5-7.5h-15.5v-3.372h15.5    c4.142,0,7.5-3.357,7.5-7.5s-3.358-7.5-7.5-7.5h-15.5v-3.372H338.388z"/>
		<path id="XMLID_673_" d="M152.167,327.892h-81c-4.142,0-7.5,3.357-7.5,7.5s3.358,7.5,7.5,7.5h81c4.142,0,7.5-3.357,7.5-7.5    S156.309,327.892,152.167,327.892z"/>
		<path id="XMLID_674_" d="M152.167,359.5h-81c-4.142,0-7.5,3.357-7.5,7.5s3.358,7.5,7.5,7.5h81c4.142,0,7.5-3.357,7.5-7.5    S156.309,359.5,152.167,359.5z"/>
		<path id="XMLID_675_" d="M152.167,391.108h-81c-4.142,0-7.5,3.357-7.5,7.5s3.358,7.5,7.5,7.5h81c4.142,0,7.5-3.357,7.5-7.5    S156.309,391.108,152.167,391.108z"/>
		<path id="XMLID_676_" d="M296.5,327.892h-81c-4.142,0-7.5,3.357-7.5,7.5s3.358,7.5,7.5,7.5h81c4.142,0,7.5-3.357,7.5-7.5    S300.642,327.892,296.5,327.892z"/>
		<path id="XMLID_677_" d="M296.5,359.5h-81c-4.142,0-7.5,3.357-7.5,7.5s3.358,7.5,7.5,7.5h81c4.142,0,7.5-3.357,7.5-7.5    S300.642,359.5,296.5,359.5z"/>
		<path id="XMLID_678_" d="M296.5,391.108h-81c-4.142,0-7.5,3.357-7.5,7.5s3.358,7.5,7.5,7.5h81c4.142,0,7.5-3.357,7.5-7.5    S300.642,391.108,296.5,391.108z"/>
		<path id="XMLID_679_" d="M440.833,327.892h-81c-4.142,0-7.5,3.357-7.5,7.5s3.358,7.5,7.5,7.5h81c4.142,0,7.5-3.357,7.5-7.5    S444.976,327.892,440.833,327.892z"/>
		<path id="XMLID_680_" d="M440.833,359.5h-81c-4.142,0-7.5,3.357-7.5,7.5s3.358,7.5,7.5,7.5h81c4.142,0,7.5-3.357,7.5-7.5    S444.976,359.5,440.833,359.5z"/>
		<path id="XMLID_681_" d="M440.833,391.108h-81c-4.142,0-7.5,3.357-7.5,7.5s3.358,7.5,7.5,7.5h81c4.142,0,7.5-3.357,7.5-7.5    S444.976,391.108,440.833,391.108z"/>
	</g>
</g>















</svg>
