<svg height="480pt" viewBox="0 -1 480 480" width="480pt" xmlns="http://www.w3.org/2000/svg">
<path 
    d="m356.480469 260.371094c.824219 2.445312.421875 5.136718-1.085938 7.234375-1.507812 2.09375-3.933593 3.332031-6.515625 3.324219h-44.878906l-8-16c4.417969 0 8-3.582032 8-8v-72h12.480469c6.890625.015624 13.007812 4.425781 15.199219 10.960937zm0 0" 
    fill="#1e81ce"
/>
<path 
    d="m304 123.570312v123.359376c0 4.417968-3.582031 8-8 8h-112c-4.417969 0-8-3.582032-8-8v-123.359376c.035156-31.464843 13.269531-61.472656 36.480469-82.71875 10.878906-9.921874 21.441406-17.921874 27.519531-17.921874s16.640625 8 27.519531 17.921874c23.210938 21.246094 36.445313 51.253907 36.480469 82.71875zm0 0" fill="#2193f6"/>
<path 
    d="m280 254.929688-16 32h-48l-16-32zm0 0" fill="#1e81ce"
/>

<path d="m240 318.929688c17.671875 0 32 14.328124 32 32 0 24-32 48-32 48s-32-24-32-48c0-17.671876 14.328125-32 32-32zm0 0" 
    fill="#ff5023"/>

<path d="m264 102.929688c0 13.253906-10.746094 24-24 24s-24-10.746094-24-24c0-13.253907 10.746094-24 24-24s24 10.746093 24 24zm0 0" fill="#ff9811"/>

<path d="m184 254.929688-8 16h-44.878906c-2.582032.007812-5.007813-1.230469-6.515625-3.324219-1.507813-2.097657-1.910157-4.789063-1.085938-7.234375l24.800781-74.480469c2.191407-6.535156 8.308594-10.945313 15.199219-10.960937h12.480469v72c0 4.417968 3.582031 8 8 8zm0 0" fill="#1e81ce"/>

<path d="m400 390.929688c-2.929688.015624-5.847656.355468-8.703125 1.015624-3.601563-20.40625-22.207031-34.671874-42.851563-32.851562-20.640624 1.816406-36.464843 19.113281-36.445312 39.835938-.707031.023437-1.410156.097656-2.105469.21875-3.523437-6.375-10.917969-9.550782-17.96875-7.714844-7.046875 1.835937-11.957031 8.214844-11.925781 15.496094-3.566406.011718-7.027344 1.226562-9.816406 3.449218-9.550782-4.929687-20.976563-4.554687-30.183594.992188-9.207031-5.546875-20.632812-5.921875-30.183594-.992188-2.789062-2.222656-6.25-3.4375-9.816406-3.449218.03125-7.28125-4.878906-13.660157-11.925781-15.496094-7.050781-1.835938-14.445313 1.339844-17.96875 7.714844-.695313-.121094-1.398438-.195313-2.105469-.21875.019531-20.722657-15.804688-38.019532-36.445312-39.835938-20.644532-1.820312-39.25 12.445312-42.851563 32.851562-2.855469-.660156-5.773437-1-8.703125-1.015624-22.089844 0-40 17.910156-40 40 0 22.09375 17.910156 40 40 40h144c5.632812-.027344 11.15625-1.5625 16-4.4375 4.84375 2.875 10.367188 4.410156 16 4.4375h144c22.089844 0 40-17.90625 40-40 0-22.089844-17.910156-40-40-40zm0 0" fill="#96c8ef"/>

<path d="m118.121094 272.28125c3.011718 4.171875 7.839844 6.644531 12.984375 6.648438h44.894531c3.03125.003906 5.804688-1.710938 7.160156-4.421876l5.785156-11.578124h6.109376l13.785156 27.578124c1.355468 2.710938 4.128906 4.425782 7.160156 4.421876h48c3.046875.015624 5.839844-1.699219 7.199219-4.421876l13.746093-27.578124h6.109376l5.785156 11.578124c1.355468 2.710938 4.128906 4.425782 7.160156 4.421876h44.894531c5.148438.007812 9.984375-2.460938 13-6.636719 3.011719-4.175781 3.832031-9.542969 2.203125-14.425781l-24.898437-74.527344c-3.261719-9.785156-12.414063-16.390625-22.726563-16.410156h-4.472656v-43.335938c-.050781-33.722656-14.234375-65.882812-39.105469-88.664062-19.390625-17.71875-27.757812-20-32.894531-20s-13.503906 2.28125-32.894531 20c-24.871094 22.78125-39.054688 54.941406-39.105469 88.664062v43.335938h-4.472656c-10.3125.019531-19.464844 6.625-22.726563 16.410156l-24.855469 74.535156c-1.625 4.875-.816406 10.230469 2.175782 14.40625zm140.933594 6.648438h-38.109376l-8-16h54.109376zm57.417968-96c3.445313 0 6.503906 2.203124 7.589844 5.472656l24.832031 74.527344h-39.949219l-2.136718-4.277344c3.296875-3.007813 5.183594-7.257813 5.191406-11.722656v-64zm-132.472656-59.335938c.0625-29.210938 12.355469-57.0625 33.894531-76.800781 16.691407-15.308594 21.9375-15.863281 22.058594-15.863281.117187 0 5.460937.554687 22.152344 15.824218 21.546875 19.746094 33.839843 47.613282 33.894531 76.839844v123.335938h-48v-56h-16v56h-48zm-28.0625 64.800781c1.089844-3.265625 4.148438-5.464843 7.589844-5.464843h4.472656v64c.007812 4.464843 1.894531 8.714843 5.191406 11.722656l-2.136718 4.277344h-40zm0 0"/><path d="m232 342.929688h16v16h-16zm0 0"/><path d="m240 310.929688c-22.082031.027343-39.972656 17.921874-40 40 0 27.199218 31.59375 51.695312 35.199219 54.402343 2.84375 2.132813 6.757812 2.132813 9.601562 0 3.605469-2.707031 35.199219-27.203125 35.199219-54.402343-.027344-22.078126-17.917969-39.972657-40-40zm0 77.664062c-9.449219-8.304688-24-24-24-37.664062 0-13.253907 10.746094-24 24-24s24 10.746093 24 24c0 13.664062-14.550781 29.359374-24 37.664062zm0 0"/><path d="m240 134.929688c17.671875 0 32-14.324219 32-32 0-17.671876-14.328125-32-32-32s-32 14.328124-32 32c0 17.675781 14.328125 32 32 32zm0-48c8.835938 0 16 7.164062 16 16 0 8.835937-7.164062 16-16 16s-16-7.164063-16-16c0-8.835938 7.164062-16 16-16zm0 0"/><path d="m98.34375 108.585938 10.34375 10.34375h-76.6875v16h76.6875l-10.34375 10.34375 11.3125 11.3125 24-24c3.121094-3.125 3.121094-8.1875 0-11.3125l-24-24zm0 0"/><path d="m0 118.929688h16v16h-16zm0 0"/><path d="m102.945312 233.785156 8.796876-32.796875c1.148437-4.269531-1.386719-8.65625-5.652344-9.800781l-32.800782-8.800781-4.136718 15.457031 14.121094 3.78125-38.699219 22.378906 8 13.855469 38.699219-22.34375-3.777344 14.128906zm0 0"/><path d="m16.859375 240.003906 13.859375-8 7.996094 13.855469-13.855469 8zm0 0"/><path d="m69.152344 55.988281 4.136718 15.453125 32.800782-8.796875c4.265625-1.144531 6.800781-5.535156 5.652344-9.800781l-8.796876-32.800781-15.449218 4.144531 3.777344 14.128906-38.699219-22.3125-8 13.855469 38.699219 22.34375zm0 0"/><path d="m16.859375 13.867188 8-13.8593755 13.855469 7.9999995-8 13.855469zm0 0"/><path d="m370.34375 156.585938 11.3125-11.3125-10.34375-10.34375h76.6875v-16h-76.6875l10.34375-10.34375-11.3125-11.3125-24 24c-3.121094 3.125-3.121094 8.1875 0 11.3125zm0 0"/><path d="m464 118.929688h16v16h-16zm0 0"/><path d="m435.425781 224.003906-38.699219-22.34375 14.121094-3.785156-4.136718-15.457031-32.800782 8.800781c-4.265625 1.144531-6.800781 5.53125-5.652344 9.800781l8.796876 32.800781 15.449218-4.144531-3.777344-14.128906 38.699219 22.34375zm0 0"/><path d="m441.285156 245.867188 8-13.855469 13.855469 7.996093-7.996094 13.859376zm0 0"/><path d="m373.929688 62.660156 32.796874 8.796875 4.136719-15.453125-14.121093-3.785156 38.699218-22.34375-8-13.855469-38.714844 22.328125 3.777344-14.128906-15.449218-4.144531-8.796876 32.800781c-1.136718 4.265625 1.402344 8.648438 5.671876 9.785156zm0 0"/><path d="m441.28125 8 13.859375-8 7.996094 13.855469-13.855469 8zm0 0"/><path d="m448 430.929688c-.027344-26.496094-21.5-47.972657-48-48-.902344 0-1.816406 0-2.710938.082031-6.90625-19.605469-25.640624-32.535157-46.417968-32.039063-20.777344.492188-38.875 14.304688-44.839844 34.214844-7.417969-3.476562-16.097656-2.910156-23 1.503906-6.90625 4.410156-11.066406 12.046875-11.03125 20.238282h16c0-4.417969 3.582031-8 8-8s8 3.582031 8 8c-.011719.460937-.046875.921874-.113281 1.375-.328125 3.019531 1.082031 5.964843 3.640625 7.601562 2.554687 1.640625 5.820312 1.6875 8.425781.128906 1.222656-.730468 2.621094-1.113281 4.046875-1.105468 4.417969 0 8 3.582031 8 8 0 4.417968-3.582031 8-8 8v16c13.226562 0 23.953125-10.722657 23.953125-23.949219 0-13.230469-10.726563-23.953125-23.953125-23.953125v-.097656c.046875-16.539063 12.6875-30.316407 29.160156-31.785157 16.472656-1.464843 31.351563 9.859375 34.320313 26.128907.382812 2.160156 1.632812 4.066406 3.460937 5.277343 1.828125 1.210938 4.074219 1.617188 6.210938 1.125 2.246094-.507812 4.542968-.753906 6.847656-.746093 17.671875 0 32 14.328124 32 32 0 17.675781-14.328125 32-32 32h-320c-17.671875 0-32-14.324219-32-32 0-17.671876 14.328125-32 32-32 2.304688-.003907 4.601562.25 6.847656.761718 2.136719.492188 4.382813.085938 6.210938-1.125 1.828125-1.210937 3.078125-3.117187 3.460937-5.277344 2.96875-16.265624 17.84375-27.589843 34.3125-26.128906 16.472657 1.464844 29.113281 15.234375 29.167969 31.769532v.097656c-13.226562 0-23.953125 10.722656-23.953125 23.953125 0 13.226562 10.726563 23.949219 23.953125 23.949219v-16c-4.417969 0-8-3.582032-8-8 0-4.417969 3.582031-8 8-8 1.425781-.007813 2.824219.375 4.046875 1.105468 2.605469 1.558594 5.871094 1.511719 8.425781-.128906 2.558594-1.636719 3.96875-4.582031 3.640625-7.601562-.066406-.453126-.101562-.914063-.113281-1.375 0-4.417969 3.582031-8 8-8s8 3.582031 8 8h16c.035156-8.191407-4.125-15.828126-11.03125-20.238282-6.902344-4.414062-15.582031-4.980468-23-1.503906-5.964844-19.910156-24.0625-33.722656-44.839844-34.214844-20.777344-.496094-39.511718 12.433594-46.417968 32.039063-.894532-.082031-1.808594-.082031-2.710938-.082031-18.945312-.03125-36.128906 11.101562-43.847656 28.402343-7.714844 17.300781-4.515625 37.523438 8.167968 51.597657h-44.320312v16h480v-16h-44.320312c7.925781-8.773438 12.316406-20.175782 12.320312-32zm0 0"/></svg>